<svg width="70" height="70" viewBox="0 0 70 70" fill="none" xmlns="http://www.w3.org/2000/svg">
<g clip-path="url(#clip0_210_71)">
<rect x="1" y="1" width="68" height="68" rx="34" fill="white" stroke="#1060EE" stroke-width="2"/>
<rect x="21" y="30" width="26" height="20" rx="3" stroke="#1060EE" stroke-width="2"/>
<line x1="31" y1="30" x2="37" y2="30" stroke="white" stroke-width="2"/>
<path d="M34.7071 19.2929C34.3166 18.9024 33.6834 18.9024 33.2929 19.2929L26.9289 25.6569C26.5384 26.0474 26.5384 26.6805 26.9289 27.0711C27.3195 27.4616 27.9526 27.4616 28.3431 27.0711L34 21.4142L39.6569 27.0711C40.0474 27.4616 40.6805 27.4616 41.0711 27.0711C41.4616 26.6805 41.4616 26.0474 41.0711 25.6569L34.7071 19.2929ZM35 40L35 20H33L33 40H35Z" fill="#1060EE"/>
</g>
<defs>
<clipPath id="clip0_210_71">
<rect width="70" height="70" fill="white"/>
</clipPath>
</defs>
</svg>
