<svg width="80" height="80" viewBox="0 0 80 80" fill="none" xmlns="http://www.w3.org/2000/svg">
<path d="M59.3725 75.0034C59.075 75.1609 59.1 75.2109 59.385 75.0659C59.4775 75.0284 59.555 74.9759 59.6225 74.9134C59.6225 74.8609 59.6225 74.8609 59.3725 75.0034ZM59.9725 74.6784C59.83 74.7959 59.83 74.7959 60 74.7184C60.09 74.6659 60.17 74.6159 60.17 74.6009C60.17 74.5334 60.13 74.5484 59.9725 74.6784ZM60.3625 74.4434C60.22 74.5609 60.22 74.5609 60.39 74.4834C60.4825 74.4309 60.56 74.3759 60.56 74.3634C60.56 74.3009 60.52 74.3134 60.3625 74.4434ZM60.7575 74.2109C60.615 74.3284 60.615 74.3284 60.78 74.2484C60.8725 74.1984 60.95 74.1459 60.95 74.1309C60.95 74.0684 60.91 74.0809 60.7575 74.2109ZM61.29 73.8584C61.0175 74.0409 60.9225 74.1584 61.1725 74.0284C61.34 73.9259 61.625 73.7009 61.575 73.7009C61.4675 73.7409 61.3775 73.8084 61.2875 73.8584H61.29ZM37.3825 0.0183751C37.2 0.0308751 36.6525 0.0808751 36.1725 0.120875C24.8025 1.15088 14.165 7.27088 7.4225 16.6984C3.695 21.8659 1.275 27.8684 0.3625 34.1709C0.04 36.3709 0 37.0209 0 40.0034C0 42.9834 0.04 43.6234 0.3625 45.8234C2.54 60.8509 13.23 73.4659 27.72 78.1409C30.3275 78.9734 33.06 79.5484 36.1725 79.9009C37.3825 80.0309 42.615 80.0309 43.825 79.9009C49.205 79.3009 53.7475 77.9734 58.2425 75.6809C58.9325 75.3309 59.0625 75.2384 58.97 75.1609C56.77 72.2584 54.61 69.3534 52.4475 66.4234L46.055 57.7909L38.0475 45.9284C35.3775 41.9584 32.6975 37.9984 29.975 34.0684C29.9475 34.0684 29.9125 39.3409 29.8975 45.7709C29.87 57.0334 29.87 57.4909 29.7275 57.7509C29.585 58.0634 29.35 58.3234 29.0375 58.4684C28.79 58.5859 28.5675 58.6109 27.385 58.6109H26.0325L25.68 58.3909C25.46 58.2484 25.2775 58.0509 25.16 57.8184L24.99 57.4659L25.0025 41.7884L25.03 26.1109L25.2775 25.7984C25.435 25.6059 25.63 25.4484 25.85 25.3309C26.1775 25.1734 26.3075 25.1484 27.66 25.1484C29.2475 25.1484 29.51 25.2109 29.9275 25.6684C33.1675 30.4984 36.3975 35.3409 39.575 40.1984C44.7725 48.0784 51.8675 58.8309 55.355 64.1059L61.6975 73.7034L62.01 73.4959C65.0575 71.4634 67.83 69.0434 70.2225 66.2834C75.2625 60.5134 78.5325 53.4159 79.64 45.8409C79.9625 43.6409 80.0025 42.9884 80.0025 40.0084C80.0025 37.0259 79.9625 36.3884 79.64 34.1884C77.4625 19.1609 66.7725 6.54588 52.2825 1.86838C49.5725 1.01088 46.785 0.425875 43.9625 0.125875C43.205 0.0483751 38.035 -0.0441249 37.385 0.0233751L37.3825 0.0183751ZM53.75 24.2109C54.1275 24.3909 54.4125 24.7309 54.5425 25.1209C54.61 25.3309 54.6225 29.6784 54.61 39.4709L54.5825 53.5309L52.11 49.7309L49.6225 45.9284V35.7209C49.6225 29.1034 49.65 25.3934 49.685 25.2109C49.8025 24.7934 50.0875 24.4434 50.4675 24.2234C50.7775 24.0659 50.8975 24.0534 52.135 24.0534C53.2925 24.0534 53.49 24.0659 53.75 24.2109Z" fill="black"/>
</svg>
