<svg width="80" height="80" viewBox="0 0 80 80" fill="none" xmlns="http://www.w3.org/2000/svg">
<circle cx="40" cy="40" r="40" fill="#38BDF8"/>
<mask id="mask0_474_26" style="mask-type:luminance" maskUnits="userSpaceOnUse" x="8" y="21" width="63" height="38">
<path d="M8 21H71V58.8H8V21Z" fill="white"/>
</mask>
<g mask="url(#mask0_474_26)">
<path fill-rule="evenodd" clip-rule="evenodd" d="M39.5 21C31.1 21 25.85 25.2 23.75 33.6C26.9 29.4 30.575 27.825 34.775 28.875C37.1713 29.4735 38.884 31.213 40.7798 33.1368C43.868 36.2717 47.4427 39.9 55.25 39.9C63.65 39.9 68.9 35.7 71 27.3C67.85 31.5 64.175 33.075 59.975 32.025C57.5787 31.4265 55.866 29.687 53.9702 27.7632C50.882 24.6283 47.3073 21 39.5 21ZM23.75 39.9C15.35 39.9 10.1 44.1 8 52.5C11.15 48.3 14.825 46.725 19.025 47.775C21.4213 48.3747 23.134 50.113 25.0298 52.0368C28.118 55.1717 31.6927 58.8 39.5 58.8C47.9 58.8 53.15 54.6 55.25 46.2C52.1 50.4 48.425 51.975 44.225 50.925C41.8287 50.3265 40.116 48.587 38.2202 46.6632C35.132 43.5283 31.5573 39.9 23.75 39.9Z" fill="white"/>
</g>
</svg>
